<svg xmlns="http://www.w3.org/2000/svg" width="166" height="166" viewBox="0 0 166 166">
  <defs>
    <style>
      .cls-1 {
        fill: #00587b;
        fill-rule: evenodd;
      }
    </style>
  </defs>
  <path class="cls-1" d="M2202,1809a83,83,0,1,1,83-83A83.1,83.1,0,0,1,2202,1809Zm7.22-151.16v20.2h-14.44v-20.2a68.666,68.666,0,0,0-60.96,60.94h20.22v14.44h-20.22a68.675,68.675,0,0,0,60.96,60.94v-20.2h14.44v20.2a68.694,68.694,0,0,0,60.96-60.94h-20.21v-14.44h20.21A68.675,68.675,0,0,0,2209.22,1657.84Zm-7.22,76.28a8.12,8.12,0,1,1,8.12-8.12A8.126,8.126,0,0,1,2202,1734.12Z" transform="translate(-2119 -1643)"/>
</svg>
