<?xml version="1.0" encoding="utf-8"?>
<!-- Generator: Adobe Illustrator 20.1.0, SVG Export Plug-In . SVG Version: 6.00 Build 0)  -->
<svg version="1.1" id="Layer_1" xmlns="http://www.w3.org/2000/svg" xmlns:xlink="http://www.w3.org/1999/xlink" x="0px" y="0px"
	 viewBox="0 0 235 109" style="enable-background:new 0 0 235 109;" xml:space="preserve">
<style type="text/css">
	.st0{fill:#FFFFFF;}
</style>
<g>
	<g>
		<g>
			<path class="st0" d="M112.6,28.1h15.5v55.8h-15.5V28.1z"/>
			<path class="st0" d="M133.5,28.1h28.6c7,0,12,1.8,15.2,5c2.2,2.2,3.6,5.2,3.6,9v0.2c0,6.5-3.7,10.3-8.6,12.4
				c6.8,2.2,11.1,6.1,11.1,13.6v0.2c0,9.6-7.8,15.4-21.1,15.4h-28.8V28.1z M158.3,50.3c4.7,0,7.3-1.6,7.3-4.9v-0.2
				c0-3-2.4-4.8-7-4.8h-10v9.8H158.3z M160.6,71.5c4.7,0,7.4-1.8,7.4-5.1v-0.2c0-3-2.4-5-7.6-5h-11.8v10.3H160.6z"/>
			<path class="st0" d="M186.3,75.6l8.6-10.3c5.5,4.4,11.6,6.7,18.1,6.7c4.1,0,6.4-1.4,6.4-3.8V68c0-2.3-1.8-3.6-9.4-5.3
				c-11.9-2.7-21-6.1-21-17.5V45c0-10.4,8.2-17.9,21.6-17.9c9.5,0,16.9,2.6,23,7.4l-7.7,10.9c-5.1-3.6-10.7-5.5-15.6-5.5
				c-3.7,0-5.6,1.6-5.6,3.6v0.2c0,2.6,1.9,3.7,9.6,5.4C227,51.9,235,56.1,235,66.5v0.2c0,11.4-9,18.2-22.6,18.2
				C202.6,84.9,193.2,81.7,186.3,75.6z"/>
		</g>
		<path class="st0" d="M19.7,49.7c0-1.3-1.1-2.4-2.4-2.5L2.5,48.9c-1.4,0-2.5,1.1-2.5,2.5v32.1C0,84.9,1.1,86,2.5,86l0.3,0l14.5,1.7
			c1.3-0.1,2.4-1.2,2.4-2.5V49.7z"/>
		<path class="st0" d="M93.7,0.2L28.1,10.3c-4.6,0-8.2,3-8.2,6.7v9.7L57,22.1h0.2c4.4,0,8,3.6,8,8v49.6l28.6,4.7
			c4.6,0,8.2-3,8.2-6.7V6.9C101.9,3.2,98.2,0.2,93.7,0.2z"/>
		<path class="st0" d="M57.2,27.1l-37.4,4.6l0,0L14,32.4h-0.2c-1.6,0-2.9,1.3-2.9,2.9v7.5l6.3-0.8c0.9,0,1.8,0.2,2.6,0.5
			c2.8,1.1,4.9,3.8,4.9,7V73v7.5l32.5,4.4c1.6-0.1,2.8-1.4,2.8-2.9v-3.1V30.1C60.1,28.5,58.8,27.2,57.2,27.1z"/>
	</g>
	<g>
		<path class="st0" d="M2.2,95.3v11H0.3v-11H2.2z"/>
		<path class="st0" d="M6.5,106.3H4.6V98h1.9v1.3c0.5-0.8,1.3-1.5,2.6-1.5c1.9,0,2.9,1.3,2.9,3.2v5.3h-1.9v-4.7c0-1.3-0.6-2-1.8-2
			c-1.1,0-1.9,0.8-1.9,2.1V106.3z"/>
		<path class="st0" d="M16.2,103.7c0,0.7,0.4,1,1,1c0.4,0,0.8-0.1,1.2-0.3v1.5c-0.5,0.3-1,0.4-1.7,0.4c-1.4,0-2.4-0.6-2.4-2.4v-4.4
			h-1V98h1v-2.3h1.9V98h2.2v1.6h-2.2V103.7z"/>
		<path class="st0" d="M23.6,104.9c0.9,0,1.6-0.3,2.2-1l1.1,1c-0.8,0.9-1.9,1.5-3.4,1.5c-2.4,0-4.2-1.7-4.2-4.3c0-2.4,1.7-4.3,4-4.3
			c2.6,0,4,2.1,4,4.5c0,0.2,0,0.3,0,0.5h-6.1C21.5,104.1,22.4,104.9,23.6,104.9z M25.5,101.5c-0.1-1.2-0.8-2.2-2.1-2.2
			c-1.2,0-2,0.9-2.1,2.2H25.5z"/>
		<path class="st0" d="M29,106.3V94.8h1.9v11.4H29z"/>
		<path class="st0" d="M33.1,106.3V94.8H35v11.4H33.1z"/>
		<path class="st0" d="M37.1,96.7v-1.8h2v1.8H37.1z M37.2,106.3V98h1.9v8.3H37.2z"/>
		<path class="st0" d="M44.8,108.8c-1.4,0-2.6-0.3-3.7-1l0.7-1.4c0.9,0.5,1.8,0.9,2.9,0.9c1.7,0,2.6-0.9,2.6-2.5v-0.6
			c-0.7,0.9-1.5,1.5-2.9,1.5c-1.9,0-3.8-1.4-3.8-3.9c0-2.5,1.8-3.9,3.8-3.9c1.4,0,2.3,0.6,2.9,1.4V98h1.9v6.6
			C49.3,107.5,47.7,108.8,44.8,108.8z M45,99.4c-1.3,0-2.3,0.9-2.3,2.3c0,1.4,1,2.3,2.3,2.3c1.3,0,2.4-0.9,2.4-2.3
			C47.4,100.3,46.3,99.4,45,99.4z"/>
		<path class="st0" d="M55.2,104.9c0.9,0,1.6-0.3,2.2-1l1.1,1c-0.8,0.9-1.9,1.5-3.4,1.5c-2.4,0-4.2-1.7-4.2-4.3c0-2.4,1.7-4.3,4-4.3
			c2.6,0,4,2.1,4,4.5c0,0.2,0,0.3,0,0.5h-6.1C53,104.1,54,104.9,55.2,104.9z M57,101.5c-0.1-1.2-0.8-2.2-2.1-2.2
			c-1.2,0-2,0.9-2.1,2.2H57z"/>
		<path class="st0" d="M62.4,106.3h-1.9V98h1.9v1.3c0.5-0.8,1.3-1.5,2.6-1.5c1.9,0,2.9,1.3,2.9,3.2v5.3h-1.9v-4.7c0-1.3-0.6-2-1.8-2
			c-1.1,0-1.9,0.8-1.9,2.1V106.3z"/>
		<path class="st0" d="M73.8,106.4c-2.5,0-4.3-1.9-4.3-4.3c0-2.4,1.8-4.3,4.3-4.3c1.6,0,2.5,0.6,3.3,1.4l-1.2,1.3
			c-0.6-0.6-1.2-1-2.1-1c-1.4,0-2.4,1.2-2.4,2.6c0,1.5,1,2.7,2.5,2.7c0.9,0,1.5-0.4,2.1-1l1.1,1.1C76.4,105.8,75.4,106.4,73.8,106.4
			z"/>
		<path class="st0" d="M82.2,104.9c0.9,0,1.6-0.3,2.2-1l1.1,1c-0.8,0.9-1.9,1.5-3.4,1.5c-2.4,0-4.2-1.7-4.2-4.3c0-2.4,1.7-4.3,4-4.3
			c2.6,0,4,2.1,4,4.5c0,0.2,0,0.3,0,0.5h-6.1C80,104.1,81,104.9,82.2,104.9z M84,101.5c-0.1-1.2-0.8-2.2-2.1-2.2
			c-1.2,0-2,0.9-2.1,2.2H84z"/>
		<path class="st0" d="M100.6,98.1c0,1.3-0.8,2-1.6,2.5c1.3,0.4,2.2,1.2,2.2,2.7c0,2-1.6,3-4.1,3h-5.1v-11H97
			C99.2,95.3,100.6,96.4,100.6,98.1z M98.7,98.4c0-0.9-0.7-1.4-1.9-1.4H94v2.9h2.6C97.9,99.9,98.7,99.4,98.7,98.4z M99.3,103
			c0-0.9-0.7-1.5-2.3-1.5H94v3h3.2C98.5,104.6,99.3,104,99.3,103z"/>
		<path class="st0" d="M108.5,98h1.9v8.3h-1.9V105c-0.5,0.8-1.3,1.5-2.6,1.5c-1.9,0-2.9-1.3-2.9-3.2V98h1.9v4.7c0,1.3,0.6,2,1.8,2
			c1.1,0,1.9-0.8,1.9-2.1V98z"/>
		<path class="st0" d="M115.4,106.4c-1.2,0-2.5-0.4-3.5-1.2l0.8-1.3c0.9,0.7,1.9,1,2.7,1c0.8,0,1.3-0.3,1.3-0.9v0
			c0-0.6-0.9-0.9-1.8-1.2c-1.2-0.3-2.6-0.8-2.6-2.4v0c0-1.6,1.3-2.5,2.9-2.5c1,0,2.2,0.4,3,0.9l-0.8,1.3c-0.8-0.5-1.6-0.8-2.3-0.8
			c-0.7,0-1.2,0.3-1.2,0.8v0c0,0.6,0.9,0.8,1.9,1.2c1.2,0.4,2.6,0.9,2.6,2.4v0C118.4,105.6,117.1,106.4,115.4,106.4z"/>
		<path class="st0" d="M120,96.7v-1.8h2v1.8H120z M120.1,106.3V98h1.9v8.3H120.1z"/>
		<path class="st0" d="M126,106.3h-1.9V98h1.9v1.3c0.5-0.8,1.3-1.5,2.6-1.5c1.9,0,2.9,1.3,2.9,3.2v5.3h-1.9v-4.7c0-1.3-0.6-2-1.8-2
			c-1.1,0-1.9,0.8-1.9,2.1V106.3z"/>
		<path class="st0" d="M137.4,104.9c0.9,0,1.6-0.3,2.2-1l1.1,1c-0.8,0.9-1.9,1.5-3.4,1.5c-2.4,0-4.2-1.7-4.2-4.3
			c0-2.4,1.7-4.3,4-4.3c2.6,0,4,2.1,4,4.5c0,0.2,0,0.3,0,0.5H135C135.2,104.1,136.2,104.9,137.4,104.9z M139.2,101.5
			c-0.1-1.2-0.8-2.2-2.1-2.2c-1.2,0-2,0.9-2.1,2.2H139.2z"/>
		<path class="st0" d="M145.5,106.4c-1.2,0-2.5-0.4-3.5-1.2l0.8-1.3c0.9,0.7,1.9,1,2.7,1c0.8,0,1.3-0.3,1.3-0.9v0
			c0-0.6-0.9-0.9-1.8-1.2c-1.2-0.3-2.6-0.8-2.6-2.4v0c0-1.6,1.3-2.5,2.9-2.5c1,0,2.2,0.4,3,0.9l-0.8,1.3c-0.8-0.5-1.6-0.8-2.3-0.8
			c-0.7,0-1.2,0.3-1.2,0.8v0c0,0.6,0.9,0.8,1.9,1.2c1.2,0.4,2.6,0.9,2.6,2.4v0C148.6,105.6,147.2,106.4,145.5,106.4z"/>
		<path class="st0" d="M153,106.4c-1.2,0-2.5-0.4-3.5-1.2l0.8-1.3c0.9,0.7,1.9,1,2.7,1c0.8,0,1.3-0.3,1.3-0.9v0
			c0-0.6-0.9-0.9-1.8-1.2c-1.2-0.3-2.6-0.8-2.6-2.4v0c0-1.6,1.3-2.5,2.9-2.5c1,0,2.2,0.4,3,0.9l-0.8,1.3c-0.8-0.5-1.6-0.8-2.3-0.8
			c-0.7,0-1.2,0.3-1.2,0.8v0c0,0.6,0.9,0.8,1.9,1.2c1.2,0.4,2.6,0.9,2.6,2.4v0C156.1,105.6,154.7,106.4,153,106.4z"/>
		<path class="st0" d="M166.5,99.9c2.3,0.6,3.5,1.4,3.5,3.2c0,2.1-1.6,3.3-3.9,3.3c-1.7,0-3.3-0.6-4.6-1.8l1.2-1.4
			c1,0.9,2.1,1.4,3.5,1.4c1.2,0,1.9-0.5,1.9-1.4c0-0.8-0.4-1.2-2.5-1.7c-2.3-0.6-3.6-1.3-3.6-3.3c0-1.9,1.6-3.2,3.7-3.2
			c1.6,0,2.9,0.5,4,1.4l-1,1.5c-1-0.7-2-1.1-3-1.1c-1.1,0-1.8,0.6-1.8,1.3C163.9,99,164.4,99.4,166.5,99.9z"/>
		<path class="st0" d="M175.7,106.4c-2.5,0-4.4-1.9-4.4-4.3c0-2.4,1.9-4.3,4.4-4.3c2.5,0,4.4,1.9,4.4,4.3
			C180.2,104.5,178.3,106.4,175.7,106.4z M175.7,99.5c-1.5,0-2.5,1.2-2.5,2.6c0,1.5,1,2.7,2.5,2.7c1.5,0,2.5-1.2,2.5-2.6
			C178.3,100.7,177.2,99.5,175.7,99.5z"/>
		<path class="st0" d="M181.9,106.3V94.8h1.9v11.4H181.9z"/>
		<path class="st0" d="M191.3,98h1.9v8.3h-1.9V105c-0.5,0.8-1.3,1.5-2.6,1.5c-1.9,0-2.9-1.3-2.9-3.2V98h1.9v4.7c0,1.3,0.6,2,1.8,2
			c1.1,0,1.9-0.8,1.9-2.1V98z"/>
		<path class="st0" d="M197.6,103.7c0,0.7,0.4,1,1,1c0.4,0,0.8-0.1,1.2-0.3v1.5c-0.5,0.3-1,0.4-1.7,0.4c-1.4,0-2.4-0.6-2.4-2.4v-4.4
			h-1V98h1v-2.3h1.9V98h2.2v1.6h-2.2V103.7z"/>
		<path class="st0" d="M201.3,96.7v-1.8h2v1.8H201.3z M201.4,106.3V98h1.9v8.3H201.4z"/>
		<path class="st0" d="M209.4,106.4c-2.5,0-4.4-1.9-4.4-4.3c0-2.4,1.9-4.3,4.4-4.3c2.5,0,4.4,1.9,4.4,4.3
			C213.8,104.5,211.9,106.4,209.4,106.4z M209.4,99.5c-1.5,0-2.5,1.2-2.5,2.6c0,1.5,1,2.7,2.5,2.7c1.5,0,2.5-1.2,2.5-2.6
			C211.9,100.7,210.8,99.5,209.4,99.5z"/>
		<path class="st0" d="M217.3,106.3h-1.9V98h1.9v1.3c0.5-0.8,1.3-1.5,2.6-1.5c1.9,0,2.9,1.3,2.9,3.2v5.3h-1.9v-4.7
			c0-1.3-0.6-2-1.8-2c-1.1,0-1.9,0.8-1.9,2.1V106.3z"/>
		<path class="st0" d="M227.7,106.4c-1.2,0-2.5-0.4-3.5-1.2l0.8-1.3c0.9,0.7,1.9,1,2.7,1c0.8,0,1.3-0.3,1.3-0.9v0
			c0-0.6-0.9-0.9-1.8-1.2c-1.2-0.3-2.6-0.8-2.6-2.4v0c0-1.6,1.3-2.5,2.9-2.5c1,0,2.2,0.4,3,0.9l-0.8,1.3c-0.8-0.5-1.6-0.8-2.3-0.8
			c-0.7,0-1.2,0.3-1.2,0.8v0c0,0.6,0.9,0.8,1.9,1.2c1.2,0.4,2.6,0.9,2.6,2.4v0C230.7,105.6,229.4,106.4,227.7,106.4z"/>
	</g>
</g>
</svg>
