<?xml version="1.0" encoding="utf-8"?>
<!-- Generator: Adobe Illustrator 20.1.0, SVG Export Plug-In . SVG Version: 6.00 Build 0)  -->
<svg version="1.1" id="Camada_1" xmlns="http://www.w3.org/2000/svg" xmlns:xlink="http://www.w3.org/1999/xlink" x="0px" y="0px"
	 viewBox="0 0 182 44" style="enable-background:new 0 0 182 44;" xml:space="preserve">
<style type="text/css">
	.st0{fill:#FFFFFF;}
</style>
<path class="st0" d="M147.9,2.8h10.7V26c0,3.4,0.5,5.9,1.5,7.4s2.6,2.3,4.9,2.3c2.3,0,4-0.8,5.2-2.4c1.2-1.6,1.7-4,1.7-7.2V2.8H182
	V26c0,5.9-1.4,10.3-4.3,13.2c-2.8,2.9-7.1,4.4-12.8,4.4c-5.6,0-9.9-1.5-12.7-4.4c-2.9-3-4.3-7.4-4.3-13.2V2.8z"/>
<path class="st0" d="M14.7,4h12.4l14.6,38.6h-11L28,34.5H13.1l-2.9,8.2H0L14.7,4z M20.7,12.6l-5,14.5h9.8L20.7,12.6z"/>
<path class="st0" d="M69.7,4.4l-0.8,8c-1.6-0.7-3.1-1.2-4.5-1.5c-1.5-0.3-2.9-0.5-4.2-0.5c-2.1,0-3.7,0.3-4.9,1s-1.8,1.6-1.8,2.7
	c0,0.8,0.3,1.5,0.9,2.1c0.6,0.6,1.5,1.1,2.7,1.5c0.4,0.1,1,0.3,1.7,0.5c4.4,1.4,7.4,2.7,8.8,3.8c1.4,1.1,2.4,2.3,3,3.6
	c0.6,1.4,1,2.9,1,4.7c0,4.3-1.4,7.5-4.2,9.7c-2.8,2.2-6.9,3.4-12.3,3.4c-1.9,0-3.9-0.1-5.8-0.4c-1.9-0.3-3.9-0.7-5.8-1.2l0.9-8.6
	c1.8,0.8,3.6,1.4,5.3,1.9c1.7,0.4,3.3,0.6,4.9,0.6c2,0,3.6-0.4,4.8-1.1c1.2-0.8,1.8-1.8,1.8-3.1c0-1.6-1.9-3.1-5.7-4.4
	c-0.9-0.3-1.6-0.6-2.1-0.7c-3.7-1.3-6.3-2.9-7.9-4.6c-1.6-1.7-2.4-4-2.4-6.7c0-3.9,1.4-6.9,4.2-8.9c2.8-2.1,6.8-3.1,11.9-3.1
	c1.9,0,3.7,0.1,5.5,0.3C66.3,3.6,68,4,69.7,4.4z"/>
<path class="st0" d="M77.4,4h10.3v16.7L99.7,4h11.5L97,21.8l15.7,20.9H99.9l-12.2-18v17.9H77.4V4z"/>
<path class="st0" d="M147.9,2.8h10.7V26c0,22,16.4,16,19.2,13.2c-2.8,2.9-7.1,4.4-12.8,4.4c-5.6,0-9.9-1.5-12.7-4.4
	c-2.9-3-4.3-7.4-4.3-13.2L147.9,2.8L147.9,2.8z"/>
<path class="st0" d="M123.3,8.9c1.7-0.5,3.3-0.7,4.8-0.7c1.7,0,3.1,0.5,4.2,1.4c1,1,1.6,2.2,1.6,3.8c0,2.1-1.3,4.7-4,7.8
	s-7.1,7.2-13.4,12.3h12.9c5.2-4.3,9-8.2,11.4-11.6c2.5-3.5,3.7-6.7,3.7-9.7c0-3.5-1.3-6.3-3.8-8.5s-5.8-3.3-9.9-3.3
	c-2.2,0-4.5,0.2-6.7,0.6s-4.4,1-6.6,1.9l0.3,8.2C119.8,10.1,121.6,9.4,123.3,8.9z"/>
<rect x="116.4" y="34.5" class="st0" width="12.9" height="9"/>
<rect x="130.6" y="34.5" class="st0" width="14.4" height="9"/>
</svg>
